# xmcd
#
# Track frame offsets: 
#        150
#        12780
#        26992
#        39712
#        52792
#        66292
#        78727
#        91124
#        105186
#        119331
#        133566
#        147958
#        162335
#
# Disc length: 2365 seconds
#
# Revision: 0
# Processed by: cddbd v1.5.2PL0 Copyright (c) Steve Scherf et al.
# Submitted via: ExactAudioCopy v1.3
#
DISCID=a5093b0d
DTITLE=Various Artist - The Rough Guide to Blind, Black and Blue (Reborn and Re
DTITLE=mastered)
DYEAR=2019
DGENRE=Blues
TTITLE0=Blind Blake - He's in the Jailhouse Now
TTITLE1=Teddy Darby - Lawdy Lawdy Worried Blues
TTITLE2=Blind Boy Fuller - Truckin' My Blues Away No. 2 (Take 2)
TTITLE3=Blind Lemon Jefferson - See That My Grave Is Kept Clean
TTITLE4=Sonny Terry - Harmonica Stomp
TTITLE5=Blind Joe Reynolds - Third Street Woman Blues
TTITLE6=Blind Joe Taggart - Religion Is Something Within You
TTITLE7=Blind Willie McTell - Stomp Down Rider
TTITLE8=Reverend Gary Davis - The Angel's Message to Me
TTITLE9=Willie Walker - South Carolina Rag (Take 2)
TTITLE10=Blind Willie Johnson - Nobody's Fault But Mine
TTITLE11=Blind Roosevelt Graves - Crazy About My Baby
TTITLE12=Blind Gussie Nesbit - Pure Religion
EXTD=
EXTT0=
EXTT1=
EXTT2=
EXTT3=
EXTT4=
EXTT5=
EXTT6=
EXTT7=
EXTT8=
EXTT9=
EXTT10=
EXTT11=
EXTT12=
PLAYORDER=
